<svg xmlns="http://www.w3.org/2000/svg"  viewBox="0 0 48 48" width="48px" height="48px" fill-rule="evenodd" clip-rule="evenodd"><linearGradient id="_d7LuA7qhFOUg9GPDWOy2a" x1="44.96" x2="32.954" y1="19.21" y2="19.21" gradientUnits="userSpaceOnUse"><stop offset="0" stop-color="#37c6d0"/><stop offset="1" stop-color="#1a9ba1"/></linearGradient><polygon fill="url(#_d7LuA7qhFOUg9GPDWOy2a)" fill-rule="evenodd" points="44.74,19.8 40.28,28.79 38,28.16 37.5,28.02 37,27.89 32.92,26.76 26.49,26.76 30.78,14.48 31.99,11 32.17,10.5 32.34,10 32.47,9.63 32.92,10 33.52,10.5 34.12,11 35.61,12.23 37,13.38 37.5,13.8 38,14.21" clip-rule="evenodd"/><linearGradient id="_d7LuA7qhFOUg9GPDWOy2b" x1=".022" x2="28.05" y1="24" y2="24" gradientUnits="userSpaceOnUse"><stop offset="0" stop-color="#21ad64"/><stop offset="1" stop-color="#088242"/></linearGradient><path fill="url(#_d7LuA7qhFOUg9GPDWOy2b)" fill-rule="evenodd" d="M30.431,9.234L20.981,3L5.559,9.431L3,36.6L17.372,45l3.872-4.528l-1.182-24.216L30.431,9.234z" clip-rule="evenodd"/><linearGradient id="_d7LuA7qhFOUg9GPDWOy2c" x1="36.322" x2="28.172" y1="1.21" y2="15.325" gradientUnits="userSpaceOnUse"><stop offset="0" stop-color="#4caf50"/><stop offset=".489" stop-color="#4aaf50"/><stop offset=".665" stop-color="#43ad50"/><stop offset=".79" stop-color="#38aa50"/><stop offset=".892" stop-color="#27a550"/><stop offset=".978" stop-color="#11a050"/><stop offset="1" stop-color="#0a9e50"/></linearGradient><polygon fill="url(#_d7LuA7qhFOUg9GPDWOy2c)" fill-rule="evenodd" points="35.94,14.48 21.38,14.48 25.28,11 34.24,3 35.28,10 35.35,10.5 35.42,11 35.61,12.23" clip-rule="evenodd"/><linearGradient id="_d7LuA7qhFOUg9GPDWOy2d" x1="41.355" x2="16.695" y1="44.341" y2="19.681" gradientUnits="userSpaceOnUse"><stop offset="0" stop-color="#ffd869"/><stop offset="1" stop-color="#fec52b"/></linearGradient><path fill="url(#_d7LuA7qhFOUg9GPDWOy2d)" fill-rule="evenodd" d="M45,40.537l-12.797,4.397l-17.062-4.79l4.922-23.888l1.968-1.772L32.466,13.5l-0.985,10.434l8.269-3.215L45,40.537z" clip-rule="evenodd"/><path fill="#343434" fill-rule="evenodd" d="M11,11h26v26H11V11z" clip-rule="evenodd"/><path fill="#fff" fill-rule="evenodd" d="M14,33h10v2H14V33z M14.075,14h4.633	C21.433,14,23,15.533,23,17.8l0,0c0,2.533-2.044,3.867-4.565,3.867h-1.908V25h-2.453L14.075,14L14.075,14L14.075,14z M20.479,17.933	L20.479,17.933c0-1.067-0.749-1.667-2.044-1.667h-1.908v3.4h1.976C19.842,19.667,20.479,18.867,20.479,17.933z M24.819,19.501	L24.819,19.501c-0.033-1.468,0.536-2.886,1.575-3.925c1.038-1.038,2.456-1.607,3.925-1.575c1.982,0,3.197,0.639,4.156,1.663	l-1.471,1.727c-0.831-0.767-1.663-1.215-2.686-1.215c-1.79,0-3.069,1.471-3.069,3.325l0,0c0,1.79,1.279,3.325,3.069,3.325	c1.215,0,1.982-0.512,2.814-1.215l1.471,1.471C33.515,24.233,32.3,25,30.254,25c-1.453,0-2.845-0.581-3.866-1.615	C25.367,22.352,24.802,20.953,24.819,19.501" clip-rule="evenodd"/><path d="M37.5,13.8L37,13.38V37H11V11h24.42l-0.07-0.5L35.28,10H10v28h28V14.21L37.5,13.8z" opacity=".05"/><path d="M37,13.38V37H11V11h24.42l-0.07-0.5H10.5v27h27V13.8L37,13.38z" opacity=".07"/></svg>